<?xml version="1.0" encoding="UTF-8" standalone="no"?>
<!-- Created with Inkscape (http://www.inkscape.org/) -->

<svg
   xmlns:dc="http://purl.org/dc/elements/1.1/"
   xmlns:cc="http://creativecommons.org/ns#"
   xmlns:rdf="http://www.w3.org/1999/02/22-rdf-syntax-ns#"
   xmlns:svg="http://www.w3.org/2000/svg"
   xmlns="http://www.w3.org/2000/svg"
   xmlns:sodipodi="http://sodipodi.sourceforge.net/DTD/sodipodi-0.dtd"
   xmlns:inkscape="http://www.inkscape.org/namespaces/inkscape"
   width="355"
   height="97"
   viewBox="0 0 93.927082 25.664584"
   version="1.1"
   id="svg8"
   inkscape:version="0.92.2 (5c3e80d, 2017-08-06)"
   sodipodi:docname="logo-martin.svg">
  <defs
     id="defs2" />
  <sodipodi:namedview
     id="base"
     pagecolor="#ffffff"
     bordercolor="#666666"
     borderopacity="1.0"
     inkscape:pageopacity="0.0"
     inkscape:pageshadow="2"
     inkscape:zoom="1"
     inkscape:cx="2.5"
     inkscape:cy="35.377163"
     inkscape:document-units="mm"
     inkscape:current-layer="layer1"
     showgrid="false"
     inkscape:window-width="1920"
     inkscape:window-height="1017"
     inkscape:window-x="-8"
     inkscape:window-y="-8"
     inkscape:window-maximized="1"
     units="px" />
  <metadata
     id="metadata5">
    <rdf:RDF>
      <cc:Work
         rdf:about="">
        <dc:format>image/svg+xml</dc:format>
        <dc:type
           rdf:resource="http://purl.org/dc/dcmitype/StillImage" />
        <dc:title />
      </cc:Work>
    </rdf:RDF>
  </metadata>
  <g
     inkscape:label="Capa 1"
     inkscape:groupmode="layer"
     id="layer1"
     transform="translate(0,-271.3354)">
    <path
       sodipodi:nodetypes="ccccccccccccccccccccccsccccccccccc"
       inkscape:connector-curvature="0"
       id="path1018"
       d="m 0,271.3355 h 29.109089 l 11.343357,8.13877 11.409077,-8.13877 h 3.174753 l 22.752497,13.19053 -5e-5,-9.97698 H 64.825151 v -3.21747 h 29.101932 v 3.21747 h -12.96361 v 13.19052 h -3.17475 L 55.036336,274.50122 v 13.24059 h -3.174813 v -13.24059 l -11.495526,8.41127 -11.256908,-8.41127 v 11.55719 c -0.325858,1.03665 -0.909725,1.56648 -1.648971,1.67564 l -25.8651383,0.0117 c -1.19806005,5.4e-4 -1.61456101,-1.05038 -1.58774101,-1.76968 v -5.18252 H 2.9908717 v 2.51654 c 0.11279,0.92875 0.7715473,1.19509 1.2946943,1.26317 h 20.125869 c 0.806795,-0.10429 1.367352,-0.57263 1.504761,-1.60112 v -7.18899 c -0.007,-0.57868 -0.171568,-1.03975 -1.053264,-1.15666 l -24.87085469,-0.096 z"
       style="fill:#3074ab;fill-opacity:1;stroke:none;stroke-width:0.26418558px;stroke-linecap:butt;stroke-linejoin:miter;stroke-opacity:1" />
    <rect
       y="289.32706"
       x="1.7529297e-007"
       height="1.8520833"
       width="93.927086"
       id="rect1020"
       style="opacity:1;fill:#3074ab;fill-opacity:1;stroke:none;stroke-width:0.23368432;stroke-miterlimit:4;stroke-dasharray:none;stroke-opacity:1" />
    <g
       aria-label="s  y  s  t  e  m  s"
       style="font-style:normal;font-variant:normal;font-weight:normal;font-stretch:normal;font-size:7.95010471px;line-height:1.25;font-family:Architext;-inkscape-font-specification:Architext;letter-spacing:0px;word-spacing:0px;fill:#3074ab;fill-opacity:1;stroke:#3074ab;stroke-width:0.26458114;stroke-miterlimit:4;stroke-dasharray:none;stroke-opacity:1"
       id="text1056">
      <path
         d="m 1.2440435,295.86599 v 0.23851 l 0.453156,0.4452 h 3.2595429 l 0.4770063,-0.48495 v -0.62806 L 4.9646925,294.97558 H 1.3791953 q -0.047701,0 -0.1113015,-0.0477 l -0.28620374,-0.2862 q -0.0556507,-0.0477 -0.0556507,-0.1113 v -0.77116 q 0,-0.0716 0.0477006,-0.1113 L 1.506397,293.11526 q 0.047701,-0.0397 0.1113014,-0.0397 h 3.4185451 q 0.071551,0 0.1113014,0.0397 l 0.5565074,0.54856 q 0.047701,0.0398 0.047701,0.11925 v 0.2544 q 0,0.0874 -0.063601,0.11925 -0.055651,0.0318 -0.095401,0.0318 -0.1590021,0 -0.1590021,-0.15105 v -0.1908 L 4.9646925,293.39351 H 1.6892494 l -0.4452059,0.43726 v 0.63601 l 0.1987526,0.1908 h 3.5934474 q 0.063601,0 0.1113014,0.0477 l 0.5565074,0.54061 q 0.047701,0.0398 0.047701,0.11925 v 0.77116 q 0,0.0477 -0.047701,0.1113 l -0.5644575,0.57241 q -0.039751,0.0477 -0.1192515,0.0477 H 1.6256485 q -0.047701,0 -0.1113014,-0.0477 l -0.54060714,-0.53266 q -0.0477006,-0.0398 -0.0477006,-0.11925 v -0.30211 q 0,-0.0874 0.0556507,-0.11925 0.0636008,-0.0318 0.10335134,-0.0318 0.1590021,0 0.1590021,0.15105 z"
         style="font-style:normal;font-variant:normal;font-weight:normal;font-stretch:normal;font-family:Architext;-inkscape-font-specification:Architext;fill:#3074ab;fill-opacity:1;stroke:#3074ab;stroke-width:0.26458114;stroke-miterlimit:4;stroke-dasharray:none;stroke-opacity:1"
         id="path819" />
      <path
         d="m 17.515795,295.50029 -0.0636,-0.0318 -2.122678,-2.12268 q -0.0477,-0.0477 -0.0477,-0.10335 0,-0.16695 0.174902,-0.16695 0.0636,0 0.103352,0.0397 l 2.074977,2.07498 h 0.07155 l 2.074977,-2.07498 q 0.0477,-0.0477 0.111302,-0.0477 0.0636,0 0.111301,0.0556 0.05565,0.0477 0.05565,0.11925 0,0.0557 -0.0477,0.10335 l -2.122678,2.12268 -0.05565,0.0318 v 1.20842 q 0,0.0874 -0.0636,0.11925 -0.05565,0.0318 -0.0954,0.0318 -0.159003,0 -0.159003,-0.15105 z"
         style="font-style:normal;font-variant:normal;font-weight:normal;font-stretch:normal;font-family:Architext;-inkscape-font-specification:Architext;fill:#3074ab;fill-opacity:1;stroke:#3074ab;stroke-width:0.26458114;stroke-miterlimit:4;stroke-dasharray:none;stroke-opacity:1"
         id="path821" />
      <path
         d="m 29.861315,295.86599 v 0.23851 l 0.453156,0.4452 h 3.259543 l 0.477006,-0.48495 v -0.62806 l -0.469056,-0.46111 h -3.585497 q -0.0477,0 -0.111302,-0.0477 l -0.286204,-0.2862 q -0.05565,-0.0477 -0.05565,-0.1113 v -0.77116 q 0,-0.0716 0.0477,-0.1113 l 0.532657,-0.53266 q 0.0477,-0.0397 0.111302,-0.0397 h 3.418545 q 0.07155,0 0.111301,0.0397 l 0.556508,0.54856 q 0.0477,0.0398 0.0477,0.11925 v 0.2544 q 0,0.0874 -0.0636,0.11925 -0.05565,0.0318 -0.0954,0.0318 -0.159002,0 -0.159002,-0.15105 v -0.1908 l -0.469056,-0.45316 h -3.275443 l -0.445206,0.43726 v 0.63601 l 0.198753,0.1908 h 3.593447 q 0.0636,0 0.111301,0.0477 l 0.556508,0.54061 q 0.0477,0.0398 0.0477,0.11925 v 0.77116 q 0,0.0477 -0.0477,0.1113 l -0.564458,0.57241 q -0.03975,0.0477 -0.119251,0.0477 H 30.24292 q -0.0477,0 -0.111301,-0.0477 l -0.540608,-0.53266 q -0.0477,-0.0398 -0.0477,-0.11925 v -0.30211 q 0,-0.0874 0.05565,-0.11925 0.0636,-0.0318 0.103352,-0.0318 0.159002,0 0.159002,0.15105 z"
         style="font-style:normal;font-variant:normal;font-weight:normal;font-stretch:normal;font-family:Architext;-inkscape-font-specification:Architext;fill:#3074ab;fill-opacity:1;stroke:#3074ab;stroke-width:0.26458114;stroke-miterlimit:4;stroke-dasharray:none;stroke-opacity:1"
         id="path823" />
      <path
         d="m 46.061514,293.39351 h -1.979576 q -0.0954,0 -0.127202,-0.0557 -0.0318,-0.0636 -0.0318,-0.10335 0,-0.159 0.159002,-0.159 h 4.237406 q 0.08745,0 0.119251,0.0636 0.0318,0.0556 0.0318,0.0954 0,0.159 -0.151052,0.159 h -1.939826 v 3.3152 q 0,0.0874 -0.0636,0.11925 -0.05565,0.0318 -0.0954,0.0318 -0.159002,0 -0.159002,-0.15105 z"
         style="font-style:normal;font-variant:normal;font-weight:normal;font-stretch:normal;font-family:Architext;-inkscape-font-specification:Architext;fill:#3074ab;fill-opacity:1;stroke:#3074ab;stroke-width:0.26458114;stroke-miterlimit:4;stroke-dasharray:none;stroke-opacity:1"
         id="path825" />
      <path
         d="m 58.41039,295.19024 v -1.69338 q 0,-0.0716 0.0477,-0.11925 l 0.270304,-0.26235 q 0.0477,-0.0397 0.111301,-0.0397 h 4.253306 q 0.08745,0 0.119252,0.0636 0.0318,0.0556 0.0318,0.0954 0,0.159 -0.151052,0.159 h -4.189705 l -0.174902,0.16695 v 1.62978 h 3.275443 q 0.08745,0 0.119252,0.0636 0.0318,0.0556 0.0318,0.0954 0,0.159 -0.151052,0.159 h -3.275443 v 1.04146 h 4.324857 q 0.08745,0 0.119251,0.0636 0.0318,0.0557 0.0318,0.0954 0,0.159 -0.151052,0.159 h -4.483859 q -0.159002,0 -0.159002,-0.159 v -1.20047 h -0.413406 q -0.08745,0 -0.119251,-0.0557 -0.0318,-0.0636 -0.0318,-0.10335 0,-0.159 0.151052,-0.159 z"
         style="font-style:normal;font-variant:normal;font-weight:normal;font-stretch:normal;font-family:Architext;-inkscape-font-specification:Architext;fill:#3074ab;fill-opacity:1;stroke:#3074ab;stroke-width:0.26458114;stroke-miterlimit:4;stroke-dasharray:none;stroke-opacity:1"
         id="path827" />
      <path
         d="m 72.751506,296.70871 v -3.4742 q 0,-0.16695 0.159002,-0.16695 0.0636,0 0.111301,0.0477 l 2.615585,2.60763 h 0.111301 l 2.615585,-2.60763 q 0.0477,-0.0477 0.111301,-0.0477 0.159002,0 0.159002,0.16695 v 3.4742 q 0,0.0874 -0.0636,0.11925 -0.05565,0.0318 -0.0954,0.0318 -0.159002,0 -0.159002,-0.15105 v -3.08464 l -2.385031,2.37708 q -0.03975,0.0398 -0.111302,0.0398 h -0.254403 q -0.07155,0 -0.111302,-0.0398 l -2.385031,-2.37708 v 3.08464 q 0,0.0874 -0.0636,0.11925 -0.05565,0.0318 -0.0954,0.0318 -0.159002,0 -0.159002,-0.15105 z"
         style="font-style:normal;font-variant:normal;font-weight:normal;font-stretch:normal;font-family:Architext;-inkscape-font-specification:Architext;fill:#3074ab;fill-opacity:1;stroke:#3074ab;stroke-width:0.26458114;stroke-miterlimit:4;stroke-dasharray:none;stroke-opacity:1"
         id="path829" />
      <path
         d="m 88.493334,295.86599 v 0.23851 l 0.453156,0.4452 h 3.259543 l 0.477006,-0.48495 v -0.62806 l -0.469056,-0.46111 h -3.585497 q -0.0477,0 -0.111302,-0.0477 l -0.286203,-0.2862 q -0.05565,-0.0477 -0.05565,-0.1113 v -0.77116 q 0,-0.0716 0.0477,-0.1113 l 0.532657,-0.53266 q 0.0477,-0.0397 0.111302,-0.0397 h 3.418545 q 0.07155,0 0.111301,0.0397 l 0.556508,0.54856 q 0.0477,0.0398 0.0477,0.11925 v 0.2544 q 0,0.0874 -0.0636,0.11925 -0.05565,0.0318 -0.0954,0.0318 -0.159002,0 -0.159002,-0.15105 v -0.1908 l -0.469056,-0.45316 H 88.93854 l -0.445206,0.43726 v 0.63601 l 0.198753,0.1908 h 3.593447 q 0.0636,0 0.111301,0.0477 l 0.556508,0.54061 q 0.0477,0.0398 0.0477,0.11925 v 0.77116 q 0,0.0477 -0.0477,0.1113 l -0.564458,0.57241 q -0.03975,0.0477 -0.119251,0.0477 h -3.394695 q -0.0477,0 -0.111301,-0.0477 l -0.540608,-0.53266 q -0.0477,-0.0398 -0.0477,-0.11925 v -0.30211 q 0,-0.0874 0.05565,-0.11925 0.0636,-0.0318 0.103351,-0.0318 0.159002,0 0.159002,0.15105 z"
         style="font-style:normal;font-variant:normal;font-weight:normal;font-stretch:normal;font-family:Architext;-inkscape-font-specification:Architext;fill:#3074ab;fill-opacity:1;stroke:#3074ab;stroke-width:0.26458114;stroke-miterlimit:4;stroke-dasharray:none;stroke-opacity:1"
         id="path831" />
    </g>
  </g>
</svg>
