<?xml version="1.0" encoding="UTF-8" standalone="no"?>
<!-- Created with Inkscape (http://www.inkscape.org/) -->

<svg
   xmlns:dc="http://purl.org/dc/elements/1.1/"
   xmlns:cc="http://creativecommons.org/ns#"
   xmlns:rdf="http://www.w3.org/1999/02/22-rdf-syntax-ns#"
   xmlns:svg="http://www.w3.org/2000/svg"
   xmlns="http://www.w3.org/2000/svg"
   xmlns:sodipodi="http://sodipodi.sourceforge.net/DTD/sodipodi-0.dtd"
   xmlns:inkscape="http://www.inkscape.org/namespaces/inkscape"
   width="326"
   height="90"
   viewBox="0 0 86.254174 23.812503"
   version="1.1"
   id="svg8"
   inkscape:version="0.92.2 (5c3e80d, 2017-08-06)"
   sodipodi:docname="logo-martin-exper.svg">
  <defs
     id="defs2" />
  <sodipodi:namedview
     id="base"
     pagecolor="#ffffff"
     bordercolor="#666666"
     borderopacity="1.0"
     inkscape:pageopacity="0.0"
     inkscape:pageshadow="2"
     inkscape:zoom="1"
     inkscape:cx="59.5"
     inkscape:cy="57.695599"
     inkscape:document-units="mm"
     inkscape:current-layer="layer1"
     showgrid="false"
     inkscape:window-width="1920"
     inkscape:window-height="1017"
     inkscape:window-x="-8"
     inkscape:window-y="-8"
     inkscape:window-maximized="1"
     units="px" />
  <metadata
     id="metadata5">
    <rdf:RDF>
      <cc:Work
         rdf:about="">
        <dc:format>image/svg+xml</dc:format>
        <dc:type
           rdf:resource="http://purl.org/dc/dcmitype/StillImage" />
        <dc:title></dc:title>
      </cc:Work>
    </rdf:RDF>
  </metadata>
  <g
     inkscape:label="Capa 1"
     inkscape:groupmode="layer"
     id="layer1"
     transform="translate(0,-273.18746)">
    <path
       sodipodi:nodetypes="ccccccccccccccccccccccsccccccccccc"
       inkscape:connector-curvature="0"
       id="path1018"
       d="m 19.48019,273.92036 h 20.664065 l 8.052462,5.77759 8.099118,-5.77759 h 2.253704 l 16.151622,9.36374 -3.5e-5,-7.08249 h -9.202624 v -2.28402 h 20.658981 v 2.28402 h -9.202654 v 9.36373 h -2.253703 l -16.151544,-9.39768 v 9.39927 h -2.253747 v -9.39927 l -8.160486,5.97102 -7.991094,-5.97102 v 8.20426 c -0.231322,0.7359 -0.6458,1.11202 -1.170579,1.18951 l -18.361236,0.008 c -0.850485,3.8e-4 -1.146152,-0.74564 -1.127112,-1.25626 v -3.67899 h 2.118032 v 1.78645 c 0.08007,0.6593 0.547709,0.84838 0.919083,0.89671 h 14.287023 c 0.572731,-0.074 0.970661,-0.4065 1.068206,-1.13661 v -5.10335 c -0.0049,-0.41079 -0.121793,-0.7381 -0.747695,-0.8211 l -17.655412,-0.0681 z"
       style="fill:#3074ab;fill-opacity:1;stroke:none;stroke-width:0.18754101px;stroke-linecap:butt;stroke-linejoin:miter;stroke-opacity:1" />
    <rect
       y="287.73874"
       x="25.135418"
       height="1.3245059"
       width="61.118752"
       id="rect1020"
       style="opacity:1;fill:#3074ab;fill-opacity:1;stroke:none;stroke-width:0.15941094;stroke-miterlimit:4;stroke-dasharray:none;stroke-opacity:1" />
    <g
       aria-label="s  y  s  t  e  m  s"
       style="font-style:normal;font-variant:normal;font-weight:normal;font-stretch:normal;font-size:5.10264635px;line-height:1.25;font-family:Architext;-inkscape-font-specification:Architext;letter-spacing:0px;word-spacing:0px;fill:#3074ab;fill-opacity:1;stroke:#3074ab;stroke-width:0.1698171;stroke-miterlimit:4;stroke-dasharray:none;stroke-opacity:1"
       id="text1056">
      <path
         d="m 27.276513,292.63414 v 0.15308 l 0.290851,0.28575 h 2.092085 l 0.306158,-0.31126 v -0.40311 l -0.301056,-0.29595 h -2.301293 q -0.03062,0 -0.07144,-0.0306 l -0.183696,-0.1837 q -0.03572,-0.0306 -0.03572,-0.0714 v -0.49496 q 0,-0.0459 0.03062,-0.0714 l 0.341877,-0.34187 q 0.03062,-0.0255 0.07144,-0.0255 h 2.194138 q 0.04592,0 0.07144,0.0255 l 0.357185,0.35208 q 0.03062,0.0255 0.03062,0.0765 v 0.16328 q 0,0.0561 -0.04082,0.0765 -0.03572,0.0204 -0.06123,0.0204 -0.102053,0 -0.102053,-0.0969 v -0.12246 l -0.301056,-0.29085 h -2.10229 l -0.285748,0.28064 v 0.40822 l 0.127566,0.12246 h 2.306396 q 0.04082,0 0.07144,0.0306 l 0.357185,0.34698 q 0.03062,0.0255 0.03062,0.0765 v 0.49495 q 0,0.0306 -0.03062,0.0714 l -0.362288,0.36739 q -0.02551,0.0306 -0.07654,0.0306 h -2.17883 q -0.03062,0 -0.07144,-0.0306 l -0.34698,-0.34188 q -0.03062,-0.0255 -0.03062,-0.0765 v -0.1939 q 0,-0.0561 0.03572,-0.0765 0.04082,-0.0204 0.06633,-0.0204 0.102053,0 0.102053,0.0969 z"
         style="font-style:normal;font-variant:normal;font-weight:normal;font-stretch:normal;font-family:Architext;-inkscape-font-specification:Architext;fill:#3074ab;fill-opacity:1;stroke:#3074ab;stroke-width:0.1698171;stroke-miterlimit:4;stroke-dasharray:none;stroke-opacity:1"
         id="path855" />
      <path
         d="m 37.720274,292.39942 -0.04082,-0.0204 -1.362406,-1.36241 q -0.03062,-0.0306 -0.03062,-0.0663 0,-0.10716 0.112258,-0.10716 0.04082,0 0.06634,0.0255 l 1.33179,1.33179 h 0.04592 l 1.331791,-1.33179 q 0.03062,-0.0306 0.07144,-0.0306 0.04082,0 0.07144,0.0357 0.03572,0.0306 0.03572,0.0765 0,0.0357 -0.03061,0.0663 l -1.362407,1.36241 -0.03572,0.0204 v 0.7756 q 0,0.0561 -0.04082,0.0765 -0.03572,0.0204 -0.06123,0.0204 -0.102053,0 -0.102053,-0.0969 z"
         style="font-style:normal;font-variant:normal;font-weight:normal;font-stretch:normal;font-family:Architext;-inkscape-font-specification:Architext;fill:#3074ab;fill-opacity:1;stroke:#3074ab;stroke-width:0.1698171;stroke-miterlimit:4;stroke-dasharray:none;stroke-opacity:1"
         id="path857" />
      <path
         d="m 45.644045,292.63414 v 0.15308 l 0.290851,0.28575 h 2.092085 l 0.306159,-0.31126 v -0.40311 l -0.301056,-0.29595 H 45.73079 q -0.03062,0 -0.07144,-0.0306 l -0.183695,-0.1837 q -0.03572,-0.0306 -0.03572,-0.0714 v -0.49496 q 0,-0.0459 0.03061,-0.0714 l 0.341878,-0.34187 q 0.03062,-0.0255 0.07144,-0.0255 h 2.194138 q 0.04592,0 0.07144,0.0255 l 0.357185,0.35208 q 0.03062,0.0255 0.03062,0.0765 v 0.16328 q 0,0.0561 -0.04082,0.0765 -0.03572,0.0204 -0.06123,0.0204 -0.102053,0 -0.102053,-0.0969 v -0.12246 l -0.301056,-0.29085 h -2.10229 l -0.285749,0.28064 v 0.40822 l 0.127567,0.12246 h 2.306396 q 0.04082,0 0.07144,0.0306 l 0.357185,0.34698 q 0.03062,0.0255 0.03062,0.0765 v 0.49495 q 0,0.0306 -0.03062,0.0714 l -0.362288,0.36739 q -0.02551,0.0306 -0.07654,0.0306 h -2.17883 q -0.03062,0 -0.07144,-0.0306 l -0.34698,-0.34188 q -0.03061,-0.0255 -0.03061,-0.0765 v -0.1939 q 0,-0.0561 0.03572,-0.0765 0.04082,-0.0204 0.06633,-0.0204 0.102053,0 0.102053,0.0969 z"
         style="font-style:normal;font-variant:normal;font-weight:normal;font-stretch:normal;font-family:Architext;-inkscape-font-specification:Architext;fill:#3074ab;fill-opacity:1;stroke:#3074ab;stroke-width:0.1698171;stroke-miterlimit:4;stroke-dasharray:none;stroke-opacity:1"
         id="path859" />
      <path
         d="m 56.041884,291.04722 h -1.270559 q -0.06123,0 -0.08164,-0.0357 -0.02041,-0.0408 -0.02041,-0.0663 0,-0.10206 0.102052,-0.10206 h 2.719711 q 0.05613,0 0.07654,0.0408 0.02041,0.0357 0.02041,0.0612 0,0.10205 -0.09695,0.10205 H 56.24599 v 2.1278 q 0,0.0561 -0.04082,0.0765 -0.03572,0.0204 -0.06123,0.0204 -0.102053,0 -0.102053,-0.0969 z"
         style="font-style:normal;font-variant:normal;font-weight:normal;font-stretch:normal;font-family:Architext;-inkscape-font-specification:Architext;fill:#3074ab;fill-opacity:1;stroke:#3074ab;stroke-width:0.1698171;stroke-miterlimit:4;stroke-dasharray:none;stroke-opacity:1"
         id="path861" />
      <path
         d="m 63.967807,292.20042 v -1.08687 q 0,-0.0459 0.03062,-0.0765 l 0.17349,-0.16838 q 0.03062,-0.0255 0.07144,-0.0255 h 2.729916 q 0.05613,0 0.07654,0.0408 0.02041,0.0357 0.02041,0.0612 0,0.10205 -0.09695,0.10205 h -2.689095 l -0.112258,0.10715 v 1.04605 h 2.10229 q 0.05613,0 0.07654,0.0408 0.02041,0.0357 0.02041,0.0612 0,0.10205 -0.09695,0.10205 h -2.10229 v 0.66845 h 2.775839 q 0.05613,0 0.07654,0.0408 0.02041,0.0357 0.02041,0.0612 0,0.10206 -0.09695,0.10206 H 64.06986 q -0.102053,0 -0.102053,-0.10206 v -0.7705 h -0.265338 q -0.05613,0 -0.07654,-0.0357 -0.02041,-0.0408 -0.02041,-0.0663 0,-0.10205 0.09695,-0.10205 z"
         style="font-style:normal;font-variant:normal;font-weight:normal;font-stretch:normal;font-family:Architext;-inkscape-font-specification:Architext;fill:#3074ab;fill-opacity:1;stroke:#3074ab;stroke-width:0.1698171;stroke-miterlimit:4;stroke-dasharray:none;stroke-opacity:1"
         id="path863" />
      <path
         d="m 73.172422,293.17502 v -2.22985 q 0,-0.10716 0.102053,-0.10716 0.04082,0 0.07144,0.0306 l 1.678771,1.67366 h 0.07144 l 1.67877,-1.67366 q 0.03062,-0.0306 0.07144,-0.0306 0.102052,0 0.102052,0.10716 v 2.22985 q 0,0.0561 -0.04082,0.0765 -0.03572,0.0204 -0.06123,0.0204 -0.102053,0 -0.102053,-0.0969 v -1.97982 l -1.530794,1.52569 q -0.02551,0.0255 -0.07144,0.0255 h -0.163285 q -0.04592,0 -0.07144,-0.0255 l -1.530794,-1.52569 v 1.97982 q 0,0.0561 -0.04082,0.0765 -0.03572,0.0204 -0.06123,0.0204 -0.102053,0 -0.102053,-0.0969 z"
         style="font-style:normal;font-variant:normal;font-weight:normal;font-stretch:normal;font-family:Architext;-inkscape-font-specification:Architext;fill:#3074ab;fill-opacity:1;stroke:#3074ab;stroke-width:0.1698171;stroke-miterlimit:4;stroke-dasharray:none;stroke-opacity:1"
         id="path865" />
      <path
         d="m 83.276063,292.63414 v 0.15308 l 0.29085,0.28575 h 2.092085 l 0.306159,-0.31126 v -0.40311 l -0.301056,-0.29595 h -2.301293 q -0.03062,0 -0.07144,-0.0306 l -0.183695,-0.1837 q -0.03572,-0.0306 -0.03572,-0.0714 v -0.49496 q 0,-0.0459 0.03062,-0.0714 l 0.341877,-0.34187 q 0.03062,-0.0255 0.07144,-0.0255 h 2.194138 q 0.04592,0 0.07144,0.0255 l 0.357185,0.35208 q 0.03062,0.0255 0.03062,0.0765 v 0.16328 q 0,0.0561 -0.04082,0.0765 -0.03572,0.0204 -0.06123,0.0204 -0.102053,0 -0.102053,-0.0969 v -0.12246 l -0.301056,-0.29085 h -2.10229 l -0.285748,0.28064 v 0.40822 l 0.127566,0.12246 h 2.306396 q 0.04082,0 0.07144,0.0306 l 0.357185,0.34698 q 0.03062,0.0255 0.03062,0.0765 v 0.49495 q 0,0.0306 -0.03062,0.0714 l -0.362288,0.36739 q -0.02551,0.0306 -0.07654,0.0306 h -2.17883 q -0.03062,0 -0.07144,-0.0306 l -0.34698,-0.34188 q -0.03062,-0.0255 -0.03062,-0.0765 v -0.1939 q 0,-0.0561 0.03572,-0.0765 0.04082,-0.0204 0.06633,-0.0204 0.102053,0 0.102053,0.0969 z"
         style="font-style:normal;font-variant:normal;font-weight:normal;font-stretch:normal;font-family:Architext;-inkscape-font-specification:Architext;fill:#3074ab;fill-opacity:1;stroke:#3074ab;stroke-width:0.1698171;stroke-miterlimit:4;stroke-dasharray:none;stroke-opacity:1"
         id="path867" />
    </g>
    <path
       style="fill:#3074ab;fill-opacity:1;stroke-width:0.02473338"
       d="m 18.781586,295.04936 c -0.5659,-0.0873 -1.317363,-0.39542 -1.869227,-0.7665 -0.952048,-0.64015 -1.619094,-1.52416 -1.977336,-2.62048 -0.177333,-0.5427 -0.184977,-0.60249 -0.184977,-1.44691 0,-0.87367 0.01719,-1.01401 0.18705,-1.53014 0.303242,-0.92121 0.770491,-1.63163 1.470081,-2.23511 0.623775,-0.53808 1.30635,-0.89024 2.153114,-1.11087 0.267684,-0.0697 0.278912,-0.0706 0.988028,-0.0704 0.936406,1.5e-4 1.208383,0.0388 1.768435,0.25136 0.303337,0.11511 0.901651,0.41717 1.13331,0.57214 0.414935,0.27759 1.024848,0.88834 1.305098,1.30691 0.248122,0.37059 0.518181,0.96185 0.68147,1.49197 0.10512,0.3413 0.127067,0.62145 0.114146,1.45731 -0.01071,0.69155 -0.01486,0.7457 -0.07523,0.96751 -0.196852,0.72359 -0.536465,1.41392 -0.947064,1.92508 -0.201862,0.25131 -0.634951,0.67336 -0.881768,0.85928 -0.555017,0.41809 -1.298647,0.77353 -1.88727,0.90208 -0.218721,0.0478 -0.335725,0.0547 -1.037976,0.0617 -0.435309,0.004 -0.85825,-0.003 -0.939869,-0.0149 z m 1.465926,-1.2491 c 0.600464,-0.0892 1.18419,-0.35152 1.675208,-0.75292 0.235079,-0.19217 0.626116,-0.60353 0.781511,-0.82212 0.148659,-0.20912 0.363139,-0.64113 0.454397,-0.91525 0.100438,-0.30172 0.136489,-0.61436 0.136653,-1.18507 1.47e-4,-0.55472 -0.02375,-0.74281 -0.136748,-1.07488 -0.286374,-0.8417 -0.896149,-1.60175 -1.635314,-2.03834 -0.503463,-0.29738 -0.9839,-0.44581 -1.60074,-0.49458 -0.729638,-0.0577 -1.310989,0.0576 -1.939834,0.38459 -0.348042,0.18097 -0.610535,0.37433 -0.905917,0.66731 -0.561538,0.55697 -0.868295,1.11231 -1.030445,1.86547 -0.06521,0.30287 -0.09023,0.92816 -0.04871,1.21764 0.121625,0.84836 0.501969,1.57186 1.155213,2.19747 0.524866,0.50266 1.150109,0.81905 1.876154,0.94937 0.271165,0.0487 0.895053,0.0493 1.218591,8.7e-4 z m 0.627092,-1.76762 c -0.142146,-0.0645 -0.280069,-0.16715 -0.755678,-0.56246 -0.55912,-0.46471 -0.947047,-0.8172 -1.008101,-0.91598 -0.05096,-0.0824 -0.05199,-0.1024 -0.03697,-0.70643 0.0203,-0.81619 0.10227,-1.9584 0.166036,-2.31479 0.04068,-0.22708 0.250514,-0.37821 0.44696,-0.32188 0.102857,0.0295 0.241057,0.11871 0.280977,0.18139 0.04318,0.0679 0.07203,0.3581 0.148943,1.49975 0.03438,0.51013 0.06884,0.96848 0.07661,1.01857 0.01822,0.11777 0.130849,0.27627 0.628681,0.88506 0.582974,0.71293 0.656077,0.84831 0.558705,1.03469 -0.05234,0.10025 -0.168602,0.20079 -0.263608,0.22804 -0.111122,0.0319 -0.116374,0.0313 -0.242585,-0.026 z m -12.4563074,2.08833 c -1.5619943,-0.0681 -2.7313463,-0.22698 -4.0068029,-0.54417 -0.8539862,-0.21238 -1.7870063,-0.5204 -2.5374334,-0.83768 -0.3686037,-0.15585 -1.2982295,-0.61456 -1.3616158,-0.67188 -0.060199,-0.0544 -0.1185849,-0.32007 -0.1450916,-0.66028 -0.041371,-0.53084 -0.058904,-2.00553 -0.027293,-2.29367 0.074277,-0.67734 0.3416591,-1.28107 0.744243,-1.68047 0.2729611,-0.27079 0.4675076,-0.36436 1.2558309,-0.60394 0.9717912,-0.29536 2.1903762,-0.83255 3.0511831,-1.34506 0.4389626,-0.26136 0.5586702,-0.31885 0.5927947,-0.28474 0.035325,0.0353 1.417819,4.32901 1.765567,5.4834 0.09412,0.31242 0.103877,0.33683 0.134797,0.33683 0.01088,0 0.07289,-0.13634 0.137793,-0.30298 0.150965,-0.38742 0.606303,-1.67606 0.606303,-1.71588 0,-0.0167 -0.09694,-0.18413 -0.215431,-0.37221 -0.243112,-0.38593 -0.363467,-0.6437 -0.415746,-0.89044 -0.04154,-0.19603 -0.04759,-0.57363 -0.01123,-0.70439 0.03576,-0.12889 0.301272,-0.37176 0.479089,-0.43829 0.264808,-0.0991 0.639305,-0.12699 1.027646,-0.0766 0.36301,0.0471 0.7070534,0.27924 0.7805184,0.52664 0.0494,0.16652 0.04802,0.53939 -0.0026,0.71103 -0.05424,0.18365 -0.269186,0.62239 -0.4654344,0.95011 -0.08947,0.1494 -0.162677,0.27997 -0.162677,0.29015 0,0.018 0.3834284,1.12098 0.5939444,1.70858 0.06003,0.16751 0.116408,0.28812 0.132464,0.28331 0.04059,-0.0122 0.466152,-1.30283 1.18869,-3.60485 0.692724,-2.20701 0.699003,-2.226 0.736936,-2.226 0.01442,0 0.199919,0.10423 0.41224,0.23163 0.554119,0.33247 0.968501,0.55133 1.580012,0.83447 0.527249,0.24414 0.599195,0.28235 0.599195,0.31817 0,0.01 -0.08205,0.14481 -0.182334,0.29995 -0.339898,0.52584 -0.542088,0.95295 -0.731323,1.54486 -0.195557,0.6117 -0.277504,1.13457 -0.276934,1.76706 8.38e-4,0.99181 0.205041,1.84962 0.652493,2.74169 0.212935,0.42452 0.22475,0.45596 0.18293,0.48654 -0.04275,0.0313 -0.660655,0.18967 -1.24014,0.31796 -0.852317,0.1887 -1.769557,0.31617 -2.782503,0.3867 -0.378867,0.0264 -1.7550474,0.0491 -2.0899704,0.0345 z m 0.309167,-8.5192 c -0.657735,-0.0803 -1.322354,-0.33909 -1.7762243,-0.6915 -0.2743171,-0.21299 -0.7368931,-0.68745 -0.8702989,-0.89267 -0.2850441,-0.43847 -0.6431565,-1.35935 -0.7047032,-1.81215 -0.014337,-0.10586 -0.038089,-0.14334 -0.2002469,-0.31674 -0.1471989,-0.15741 -0.2107494,-0.25195 -0.318279,-0.47353 -0.2186089,-0.45045 -0.4013142,-1.0625 -0.4591816,-1.53825 -0.05899,-0.48515 0.057695,-0.78815 0.3385585,-0.87865 0.1800624,-0.058 0.1776095,-0.0462 0.08421,-0.40749 -0.147864,-0.57184 -0.1086956,-1.39844 0.099359,-2.09705 0.2722269,-0.91408 1.0300472,-1.84791 2.0507665,-2.52705 0.4980389,-0.33138 0.9111079,-0.51664 1.4468989,-0.64889 0.22684,-0.056 1.331839,-0.0634 1.6200354,-0.0109 0.264955,0.0483 0.660724,0.18246 0.936967,0.31763 0.430041,0.21042 0.723644,0.42583 1.091171,0.8006 0.307906,0.31397 0.350875,0.34849 0.551899,0.44327 0.495275,0.2335 0.804192,0.66625 0.984081,1.37855 0.06141,0.24322 0.07575,0.35865 0.08804,0.71111 0.02211,0.63213 -0.04146,1.46603 -0.154118,2.02302 l -0.03895,0.19244 0.123992,0.13568 c 0.15061,0.16478 0.16442,0.23049 0.145005,0.68985 -0.02211,0.5235 -0.158185,1.04549 -0.414391,1.5899 -0.199279,0.42341 -0.338835,0.57579 -0.52737,0.57579 -0.12096,0 -0.146275,0.0448 -0.265266,0.46997 -0.22734,0.81227 -0.483909,1.33206 -0.903965,1.83133 -0.475825,0.56556 -1.191039,0.96201 -1.9854894,1.10054 -0.271605,0.0473 -0.70903,0.0637 -0.942495,0.0351 z"
       id="path847"
       inkscape:connector-curvature="0" />
    <circle
       style="opacity:1;fill:none;fill-opacity:1;stroke:#ffffff;stroke-width:1.0583334;stroke-linecap:round;stroke-miterlimit:4;stroke-dasharray:none;stroke-opacity:1"
       id="path849"
       cx="19.662922"
       cy="290.22415"
       r="5.4707646" />
    <g
       aria-label="X P E R I E N C E"
       style="font-style:normal;font-variant:normal;font-weight:normal;font-stretch:normal;font-size:2.20276761px;line-height:1.25;font-family:Architext;-inkscape-font-specification:Architext;letter-spacing:0px;word-spacing:0px;fill:#000000;fill-opacity:1;stroke:#000000;stroke-width:0.07330855;stroke-miterlimit:4;stroke-dasharray:none;stroke-opacity:1"
       id="text853">
      <path
         d="m 60.337939,295.93229 -0.605761,-0.60796 q -0.01322,-0.0132 -0.01322,-0.0308 0,-0.0176 0.01322,-0.0308 0.01542,-0.0154 0.03304,-0.0154 0.01762,0 0.03084,0.0154 l 0.605761,0.60796 0.607964,-0.60796 q 0.01322,-0.0132 0.03084,-0.0132 0.01983,0 0.03304,0.0132 0.01322,0.0132 0.01322,0.033 0,0.0154 -0.01322,0.0286 l -0.607964,0.60796 0.592544,0.59254 q 0.01322,0.0132 0.01322,0.0286 0,0.0176 -0.01542,0.033 -0.01542,0.0154 -0.03304,0.0154 -0.01542,0 -0.02864,-0.0132 l -0.592545,-0.59254 -0.592544,0.59254 q -0.01322,0.0132 -0.03084,0.0132 -0.01982,0 -0.03304,-0.0132 -0.01322,-0.0132 -0.01322,-0.033 0,-0.0176 0.01322,-0.0308 z"
         style="font-style:normal;font-variant:normal;font-weight:normal;font-stretch:normal;font-family:Architext;-inkscape-font-specification:Architext;fill:#000000;fill-opacity:1;stroke:#000000;stroke-width:0.07330855;stroke-miterlimit:4;stroke-dasharray:none;stroke-opacity:1"
         id="path870" />
      <path
         d="m 62.593814,296.15697 q -0.02423,0 -0.03304,-0.0154 -0.0088,-0.0176 -0.0088,-0.0286 0,-0.0441 0.04185,-0.0441 h 0.125558 v -0.69607 q 0,-0.0198 0.01101,-0.0308 l 0.0793,-0.0793 q 0.01322,-0.0132 0.03304,-0.0132 h 1.156453 q 0.01983,0 0.03304,0.0132 l 0.231291,0.23129 q 0.01322,0.0132 0.01322,0.033 v 0.35244 q 0,0.0198 -0.01322,0.033 l -0.231291,0.2313 q -0.01322,0.0132 -0.03304,0.0132 h -1.191698 v 0.40091 q 0,0.0242 -0.01762,0.033 -0.01542,0.009 -0.02643,0.009 -0.04406,0 -0.04406,-0.0419 v -0.40091 z m 0.213668,-0.0881 h 1.174076 l 0.20706,-0.20706 v -0.3172 l -0.20706,-0.20706 h -1.119006 l -0.05507,0.0551 z"
         style="font-style:normal;font-variant:normal;font-weight:normal;font-stretch:normal;font-family:Architext;-inkscape-font-specification:Architext;fill:#000000;fill-opacity:1;stroke:#000000;stroke-width:0.07330855;stroke-miterlimit:4;stroke-dasharray:none;stroke-opacity:1"
         id="path872" />
      <path
         d="m 65.894455,296.15257 v 0.36125 h 1.482462 q 0.02643,0 0.03524,0.0176 0.0088,0.0154 0.0088,0.0264 0,0.044 -0.04406,0.044 h -1.526518 q -0.04406,0 -0.04406,-0.044 v -0.40531 H 65.6918 q -0.02643,0 -0.03524,-0.0154 -0.0088,-0.0176 -0.0088,-0.0286 0,-0.0441 0.04406,-0.0441 h 0.114544 v -0.69608 q 0,-0.022 0.01542,-0.0352 l 0.0837,-0.0727 q 0.01322,-0.011 0.02864,-0.011 h 1.460435 q 0.02423,0 0.03304,0.0176 0.0088,0.0154 0.0088,0.0264 0,0.044 -0.04185,0.044 h -1.445016 l -0.05507,0.0485 v 0.67846 h 1.209319 q 0.02423,0 0.03304,0.0176 0.0088,0.0154 0.0088,0.0264 0,0.0441 -0.04185,0.0441 z"
         style="font-style:normal;font-variant:normal;font-weight:normal;font-stretch:normal;font-family:Architext;-inkscape-font-specification:Architext;fill:#000000;fill-opacity:1;stroke:#000000;stroke-width:0.07330855;stroke-miterlimit:4;stroke-dasharray:none;stroke-opacity:1"
         id="path874" />
      <path
         d="m 68.993061,295.44988 q 0,-0.022 0.01101,-0.0308 l 0.158599,-0.15639 q 0.01762,-0.0132 0.03304,-0.0132 h 1.154251 q 0.01983,0 0.03084,0.0132 l 0.231291,0.23129 q 0.01101,0.0132 0.01101,0.033 v 0.44055 q 0,0.022 -0.01101,0.0308 l -0.229088,0.22689 q -0.01762,0.0132 -0.03304,0.0132 h -0.02643 l 0.288563,0.28636 q 0.01322,0.0132 0.01322,0.0308 0,0.0176 -0.01542,0.033 -0.01322,0.0132 -0.03304,0.0132 -0.01542,0 -0.02864,-0.0132 l -0.35024,-0.35024 h -1.116804 v 0.31941 q 0,0.0242 -0.01762,0.033 -0.01542,0.009 -0.02643,0.009 -0.04406,0 -0.04406,-0.0419 v -0.31941 h -0.105733 q -0.02423,0 -0.03304,-0.0154 -0.0088,-0.0176 -0.0088,-0.0286 0,-0.0441 0.04185,-0.0441 h 0.105733 z m 0.08811,0.70048 h 1.13002 0.01542 0.105732 l 0.202655,-0.20265 v -0.40311 l -0.204857,-0.20706 h -1.116803 l -0.132167,0.13217 z"
         style="font-style:normal;font-variant:normal;font-weight:normal;font-stretch:normal;font-family:Architext;-inkscape-font-specification:Architext;fill:#000000;fill-opacity:1;stroke:#000000;stroke-width:0.07330855;stroke-miterlimit:4;stroke-dasharray:none;stroke-opacity:1"
         id="path876" />
      <path
         d="m 72.845357,295.33754 v 1.17628 h 0.722508 q 0.02643,0 0.03524,0.0176 0.0088,0.0154 0.0088,0.0264 0,0.044 -0.04406,0.044 H 72.13166 q -0.02643,0 -0.03524,-0.0154 -0.0088,-0.0176 -0.0088,-0.0286 0,-0.0441 0.04406,-0.0441 h 0.625586 v -1.17628 h -0.643208 q -0.02423,0 -0.03304,-0.0154 -0.0088,-0.0176 -0.0088,-0.0286 0,-0.0441 0.04185,-0.0441 h 1.453827 q 0.02643,0 0.03524,0.0176 0.0088,0.0154 0.0088,0.0264 0,0.044 -0.04406,0.044 z"
         style="font-style:normal;font-variant:normal;font-weight:normal;font-stretch:normal;font-family:Architext;-inkscape-font-specification:Architext;fill:#000000;fill-opacity:1;stroke:#000000;stroke-width:0.07330855;stroke-miterlimit:4;stroke-dasharray:none;stroke-opacity:1"
         id="path878" />
      <path
         d="m 75.256217,296.15257 v 0.36125 h 1.482463 q 0.02643,0 0.03524,0.0176 0.0088,0.0154 0.0088,0.0264 0,0.044 -0.04406,0.044 h -1.526518 q -0.04406,0 -0.04406,-0.044 v -0.40531 h -0.114544 q -0.02643,0 -0.03525,-0.0154 -0.0088,-0.0176 -0.0088,-0.0286 0,-0.0441 0.04406,-0.0441 h 0.114544 v -0.69608 q 0,-0.022 0.01542,-0.0352 l 0.0837,-0.0727 q 0.01322,-0.011 0.02864,-0.011 h 1.460435 q 0.02423,0 0.03304,0.0176 0.0088,0.0154 0.0088,0.0264 0,0.044 -0.04185,0.044 h -1.445015 l -0.05507,0.0485 v 0.67846 h 1.20932 q 0.02423,0 0.03304,0.0176 0.0088,0.0154 0.0088,0.0264 0,0.0441 -0.04185,0.0441 z"
         style="font-style:normal;font-variant:normal;font-weight:normal;font-stretch:normal;font-family:Architext;-inkscape-font-specification:Architext;fill:#000000;fill-opacity:1;stroke:#000000;stroke-width:0.07330855;stroke-miterlimit:4;stroke-dasharray:none;stroke-opacity:1"
         id="path880" />
      <path
         d="m 78.229264,296.55788 v -1.26439 q 0,-0.0441 0.04406,-0.0441 0.01762,0 0.03084,0.0132 l 1.231347,1.23135 q 0.01322,0.0132 0.01322,0.0308 0,0.0198 -0.01322,0.0331 -0.01322,0.0132 -0.03304,0.0132 -0.01542,0 -0.02864,-0.0132 l -1.156453,-1.15646 v 1.15646 q 0,0.0242 -0.01762,0.033 -0.01542,0.009 -0.02643,0.009 -0.04406,0 -0.04406,-0.0419 z m 1.334877,-1.26439 v 1.26439 q 0,0.0242 -0.01762,0.033 -0.01542,0.009 -0.02643,0.009 -0.04406,0 -0.04406,-0.0419 v -1.26439 q 0,-0.0242 0.01542,-0.033 0.01762,-0.009 0.02864,-0.009 0.04406,0 0.04406,0.0419 z"
         style="font-style:normal;font-variant:normal;font-weight:normal;font-stretch:normal;font-family:Architext;-inkscape-font-specification:Architext;fill:#000000;fill-opacity:1;stroke:#000000;stroke-width:0.07330855;stroke-miterlimit:4;stroke-dasharray:none;stroke-opacity:1"
         id="path882" />
      <path
         d="m 82.946974,296.30896 v 0.10574 q 0,0.0176 -0.01542,0.0308 l -0.147585,0.14318 q -0.01762,0.0132 -0.02864,0.0132 h -1.464841 q -0.01982,0 -0.03304,-0.0154 l -0.231291,-0.2379 q -0.01322,-0.0176 -0.01322,-0.0286 v -0.7952 q 0,-0.022 0.01322,-0.033 l 0.231291,-0.22909 q 0.01762,-0.0132 0.03304,-0.0132 h 1.321661 q 0.01762,0 0.03084,0.0132 l 0.14318,0.14979 q 0.01322,0.0132 0.01322,0.0286 v 0.0859 q 0,0.0242 -0.01762,0.033 -0.01542,0.009 -0.02643,0.009 -0.04406,0 -0.04406,-0.0419 v -0.0683 l -0.116746,-0.12115 h -1.284214 l -0.209263,0.20706 v 0.75775 l 0.20706,0.21147 h 1.429597 l 0.121152,-0.11675 v -0.0881 q 0,-0.0264 0.01542,-0.0352 0.01762,-0.009 0.02864,-0.009 0.04406,0 0.04406,0.0441 z"
         style="font-style:normal;font-variant:normal;font-weight:normal;font-stretch:normal;font-family:Architext;-inkscape-font-specification:Architext;fill:#000000;fill-opacity:1;stroke:#000000;stroke-width:0.07330855;stroke-miterlimit:4;stroke-dasharray:none;stroke-opacity:1"
         id="path884" />
      <path
         d="m 84.56205,296.15257 v 0.36125 h 1.482463 q 0.02643,0 0.03524,0.0176 0.0088,0.0154 0.0088,0.0264 0,0.044 -0.04406,0.044 h -1.526518 q -0.04406,0 -0.04406,-0.044 v -0.40531 h -0.114544 q -0.02643,0 -0.03525,-0.0154 -0.0088,-0.0176 -0.0088,-0.0286 0,-0.0441 0.04406,-0.0441 h 0.114544 v -0.69608 q 0,-0.022 0.01542,-0.0352 l 0.08371,-0.0727 q 0.01322,-0.011 0.02864,-0.011 h 1.460435 q 0.02423,0 0.03304,0.0176 0.0088,0.0154 0.0088,0.0264 0,0.044 -0.04185,0.044 h -1.445016 l -0.05507,0.0485 v 0.67846 h 1.20932 q 0.02423,0 0.03304,0.0176 0.0088,0.0154 0.0088,0.0264 0,0.0441 -0.04185,0.0441 z"
         style="font-style:normal;font-variant:normal;font-weight:normal;font-stretch:normal;font-family:Architext;-inkscape-font-specification:Architext;fill:#000000;fill-opacity:1;stroke:#000000;stroke-width:0.07330855;stroke-miterlimit:4;stroke-dasharray:none;stroke-opacity:1"
         id="path886" />
    </g>
  </g>
</svg>
